<?xml version="1.0" encoding="UTF-8" ?>
<!DOCTYPE svg PUBLIC "-//W3C//DTD SVG 1.1//EN" "http://www.w3.org/Graphics/SVG/1.1/DTD/svg11.dtd">
<svg width="1024pt" height="1024pt" viewBox="0 0 1024 1024" version="1.1" xmlns="http://www.w3.org/2000/svg">
<g id="#111111ff">
<path fill="#111111" opacity="1.00" d=" M 0.00 0.00 L 1024.00 0.00 L 1024.00 1024.00 L 0.00 1024.00 L 0.00 0.00 M 218.06 351.11 C 215.69 360.86 216.29 371.00 214.94 380.90 C 211.88 382.42 208.54 383.25 205.29 384.27 C 197.70 386.78 190.36 389.98 183.01 393.12 C 176.33 387.36 172.15 379.24 165.39 373.57 C 163.01 371.50 159.75 373.01 157.57 374.61 C 150.15 380.13 143.16 386.21 135.99 392.05 C 134.55 393.27 132.84 394.38 132.05 396.17 C 131.99 397.88 131.59 399.83 132.59 401.36 C 137.11 408.48 142.94 414.92 146.09 422.82 C 139.96 431.44 134.79 440.66 129.95 450.04 C 121.95 449.57 113.97 448.76 105.99 448.01 C 103.70 447.97 100.22 447.61 99.28 450.30 C 96.42 461.75 94.86 473.46 93.04 485.10 C 92.62 487.23 93.19 489.77 95.42 490.64 C 102.58 493.21 110.13 494.43 117.44 496.52 C 118.43 497.08 120.32 496.97 120.49 498.40 C 121.15 504.57 120.70 510.82 121.82 516.96 C 121.88 522.00 123.98 526.74 124.08 531.77 C 117.00 536.48 109.12 540.09 102.61 545.60 C 99.56 548.21 101.90 552.02 103.11 554.94 C 107.14 562.87 111.26 570.75 115.40 578.62 C 116.81 581.00 118.50 584.57 121.85 583.99 C 129.83 581.58 136.78 576.52 144.85 574.34 C 151.73 582.08 159.30 589.39 168.21 594.76 C 170.45 595.83 171.01 598.62 169.93 600.73 C 166.97 608.43 163.16 615.81 160.92 623.78 C 162.68 626.81 165.44 629.17 168.87 630.07 C 178.96 633.29 188.52 637.88 198.38 641.69 C 200.46 642.71 202.60 641.51 203.75 639.73 C 208.41 633.02 210.99 625.11 215.39 618.25 C 222.55 617.14 229.77 619.67 237.00 619.00 C 245.31 619.58 253.49 617.66 261.78 617.94 C 267.44 625.01 270.12 634.08 276.20 640.83 C 277.84 643.09 280.74 641.56 282.77 640.80 C 292.15 636.76 301.56 632.80 311.03 628.98 C 313.98 627.72 317.38 624.74 316.00 621.20 C 314.03 614.76 311.01 608.69 308.56 602.43 C 307.82 600.83 308.02 599.05 307.97 597.36 C 310.49 594.73 313.48 592.64 316.23 590.28 C 322.02 584.49 328.33 579.27 333.98 573.34 C 339.04 575.83 344.02 578.48 349.14 580.86 C 352.50 582.36 355.87 584.70 359.75 583.94 C 361.47 582.83 362.24 580.84 363.21 579.13 C 367.64 570.56 372.41 562.14 376.28 553.30 C 377.37 550.89 377.71 547.41 375.24 545.73 C 368.54 540.69 361.35 536.32 354.41 531.64 C 355.76 522.16 357.89 512.78 358.31 503.20 C 358.94 500.81 358.38 497.21 361.37 496.34 C 366.09 494.84 370.95 493.85 375.75 492.62 C 378.96 491.73 382.63 491.52 385.03 488.93 C 385.06 477.39 382.85 465.97 380.48 454.72 C 379.87 452.44 379.80 449.66 377.74 448.13 C 367.78 446.98 358.09 450.81 348.15 450.13 C 344.15 441.09 338.89 432.68 333.55 424.39 C 332.99 423.38 332.20 422.44 332.05 421.27 C 336.60 414.69 341.38 408.26 345.80 401.59 C 347.45 399.42 346.23 396.24 344.24 394.72 C 340.55 391.41 336.77 388.22 333.01 384.99 C 327.19 380.46 321.96 374.93 315.09 371.95 C 305.83 376.15 303.31 387.78 294.89 393.05 C 284.05 389.17 273.56 384.08 262.24 381.54 C 261.41 374.71 260.83 367.83 260.99 360.94 C 260.70 357.25 260.76 353.26 258.90 349.95 C 246.58 350.05 234.25 349.96 221.93 350.02 C 220.56 350.04 219.34 350.72 218.06 351.11 M 432.00 379.09 C 432.00 417.41 432.00 455.72 432.00 494.04 C 438.67 494.00 445.34 493.97 452.01 494.04 C 451.99 479.78 452.00 465.52 452.00 451.26 C 458.14 451.43 464.28 451.20 470.42 451.38 C 478.85 465.50 487.07 479.76 495.30 494.00 C 502.91 494.04 510.51 493.92 518.11 494.07 C 508.66 479.05 499.73 463.70 490.86 448.32 C 495.74 446.43 500.63 444.14 504.33 440.33 C 511.68 433.38 514.25 422.75 514.00 412.93 C 513.53 403.94 510.26 394.70 503.36 388.64 C 495.65 381.11 484.35 379.59 474.07 379.03 C 460.05 379.12 446.02 379.14 432.00 379.09 M 698.00 389.52 C 698.00 396.68 697.99 403.84 698.00 411.00 C 693.66 410.99 689.33 411.01 684.99 410.99 C 685.00 416.33 685.00 421.67 685.00 427.00 C 689.33 426.99 693.66 427.01 698.00 426.98 C 698.00 440.66 698.00 454.34 698.00 468.02 C 697.81 473.87 698.72 479.98 701.82 485.05 C 705.11 490.16 710.80 493.90 716.97 494.12 C 723.98 494.45 731.00 494.24 738.01 494.03 C 737.99 488.28 738.00 482.54 738.00 476.80 C 732.48 477.89 726.13 479.20 721.10 475.91 C 717.77 473.79 717.63 469.57 717.52 466.05 C 717.38 453.03 717.57 440.01 717.35 427.00 C 724.05 426.99 730.75 427.00 737.45 427.00 C 737.54 421.67 737.44 416.34 737.52 411.01 C 730.81 410.99 724.09 411.01 717.38 410.99 C 717.55 403.84 717.37 396.68 717.53 389.54 C 711.02 389.48 704.51 389.50 698.00 389.52 M 627.27 412.21 C 620.39 415.18 614.08 420.71 612.20 428.20 C 610.87 434.86 611.25 442.63 616.18 447.81 C 622.00 454.49 630.99 456.71 639.25 458.75 C 645.12 460.28 651.67 460.54 656.69 464.31 C 659.90 467.84 660.04 474.08 656.34 477.33 C 653.37 480.21 649.04 481.21 645.02 481.01 C 637.39 481.61 629.50 477.26 626.63 470.02 C 621.01 471.40 615.33 472.62 609.76 474.20 C 612.84 486.40 624.94 494.14 636.99 495.12 C 647.56 496.40 659.13 495.49 668.04 489.10 C 680.08 480.85 681.38 459.55 668.43 451.56 C 659.58 445.79 648.76 444.94 638.80 442.21 C 635.51 441.33 632.08 439.71 630.45 436.55 C 629.05 432.79 630.39 428.02 633.99 425.98 C 637.79 423.42 642.60 423.55 646.97 424.02 C 652.14 424.63 656.62 428.26 658.47 433.12 C 664.48 432.03 670.49 430.94 676.50 429.83 C 674.82 423.05 670.18 417.20 664.03 413.91 C 652.88 407.83 638.95 407.32 627.27 412.21 M 525.76 410.99 C 525.89 429.66 525.69 448.33 525.88 466.99 C 525.75 474.65 528.74 482.40 534.24 487.77 C 541.62 494.53 552.26 496.78 561.97 495.13 C 569.58 494.06 575.81 489.05 580.96 483.67 C 581.02 487.12 580.99 490.58 580.99 494.04 C 587.00 494.02 593.00 494.02 599.01 494.06 C 598.99 466.37 599.00 438.68 599.01 411.00 C 592.39 411.01 585.78 410.98 579.16 411.01 C 579.12 428.35 579.21 445.69 579.15 463.03 C 579.26 466.32 578.38 469.65 576.32 472.25 C 570.50 480.10 558.06 481.33 550.44 475.51 C 546.15 472.10 545.21 466.21 545.12 461.05 C 545.14 444.37 545.00 427.68 545.15 410.99 C 538.69 411.00 532.22 411.00 525.76 410.99 M 456.39 520.03 C 451.59 535.43 446.05 550.60 440.96 565.91 C 432.91 589.43 425.07 613.02 416.82 636.47 C 423.81 636.39 430.80 636.54 437.79 636.39 C 440.80 627.19 443.93 618.02 447.18 608.90 C 462.08 608.73 476.98 608.84 491.88 608.83 C 495.07 617.96 498.25 627.09 501.26 636.28 C 508.39 636.70 515.53 636.28 522.66 636.48 C 515.41 616.19 508.59 595.77 501.59 575.40 C 495.38 556.91 488.66 538.60 482.58 520.07 C 473.85 519.93 465.12 520.00 456.39 520.03 M 534.72 520.00 C 534.80 558.80 534.85 597.61 534.71 636.42 C 541.14 636.52 547.57 636.41 554.00 636.46 C 554.00 597.64 554.00 558.82 554.00 519.99 C 547.57 520.00 541.15 520.00 534.72 520.00 M 855.17 530.26 C 855.05 537.44 855.24 544.63 855.05 551.82 C 850.82 551.73 846.59 551.81 842.36 551.75 C 842.34 556.83 842.39 561.91 842.42 567.00 C 846.63 567.01 850.84 566.98 855.06 567.01 C 855.25 583.03 855.07 599.05 855.16 615.07 C 855.32 624.47 861.60 633.97 871.17 635.88 C 879.13 637.01 887.22 636.39 895.24 636.47 C 895.28 630.59 895.17 624.72 895.27 618.86 C 890.65 619.95 885.72 620.66 881.13 619.07 C 877.09 618.24 874.93 613.87 875.00 610.05 C 874.99 595.70 875.00 581.35 875.00 567.00 C 881.66 567.00 888.33 566.99 895.00 567.00 C 894.98 561.88 895.04 556.77 894.95 551.65 C 888.30 551.79 881.65 551.82 875.01 551.68 C 874.99 544.54 875.00 537.40 875.00 530.26 C 868.39 530.35 861.78 530.20 855.17 530.26 M 575.36 565.37 C 568.39 576.35 566.90 590.17 569.39 602.76 C 571.13 611.00 574.96 619.07 581.30 624.75 C 587.77 630.37 596.44 633.53 605.03 633.02 C 614.62 633.59 623.81 628.79 629.96 621.61 C 630.01 629.81 630.83 638.81 626.00 645.98 C 621.02 653.90 610.39 655.86 601.78 654.21 C 595.46 653.37 590.14 649.18 586.82 643.90 C 581.20 645.59 575.54 647.11 570.00 649.02 C 572.63 654.09 575.74 659.16 580.55 662.45 C 591.29 670.82 605.83 671.58 618.79 669.64 C 629.49 667.81 639.76 661.53 644.84 651.73 C 649.33 643.60 649.44 634.10 649.69 625.05 C 649.85 600.41 649.68 575.76 649.83 551.12 C 643.84 551.07 637.86 551.13 631.88 551.05 C 631.29 554.74 631.05 558.47 630.73 562.20 C 628.16 559.14 625.99 555.57 622.43 553.54 C 607.01 544.15 584.66 550.01 575.36 565.37 M 672.73 561.78 C 662.96 572.78 660.54 588.43 662.52 602.59 C 663.71 611.12 666.93 619.69 673.19 625.81 C 681.34 634.22 693.53 637.74 705.02 637.00 C 719.84 637.72 736.25 630.03 741.30 615.29 C 735.09 614.38 728.98 612.88 722.88 611.43 C 720.56 615.18 717.67 618.87 713.37 620.43 C 705.06 623.63 694.57 622.32 688.12 615.88 C 683.39 611.47 681.98 604.88 681.12 598.74 C 701.74 598.66 722.38 598.59 743.00 598.82 C 743.15 584.81 739.89 569.60 729.60 559.42 C 714.13 544.93 686.91 545.92 672.73 561.78 M 786.22 552.08 C 781.13 554.19 777.31 558.20 773.07 561.54 C 772.93 558.09 773.05 554.64 772.92 551.19 C 766.93 551.14 760.94 551.19 754.96 551.07 C 755.04 579.52 754.98 607.97 754.99 636.43 C 761.62 636.38 768.26 636.52 774.89 636.37 C 774.67 617.58 774.67 598.78 774.91 579.99 C 776.06 569.14 788.77 563.67 798.44 566.58 C 803.96 568.04 808.52 572.66 809.86 578.22 C 811.05 583.73 810.65 589.40 810.75 595.00 C 810.71 608.81 810.80 622.62 810.75 636.43 C 817.29 636.45 823.84 636.44 830.39 636.47 C 830.20 617.66 830.48 598.84 830.19 580.04 C 830.29 571.08 826.95 561.80 820.17 555.77 C 810.79 548.23 797.03 547.10 786.22 552.08 Z" />
<path fill="#111111" opacity="1.00" d=" M 452.00 397.00 C 462.79 397.59 474.15 395.31 484.44 399.48 C 493.42 403.23 495.38 414.96 492.20 423.26 C 489.92 429.44 483.16 432.49 476.99 433.02 C 468.70 434.12 460.34 433.47 452.02 433.73 C 451.98 421.48 452.01 409.24 452.00 397.00 Z" />
<path fill="#111111" opacity="1.00" d=" M 232.51 411.77 C 251.87 410.04 271.60 415.56 287.74 426.28 C 300.12 434.79 310.59 446.18 317.51 459.56 C 326.05 475.31 328.74 493.79 326.50 511.46 C 324.02 528.86 316.32 545.52 304.41 558.47 C 285.49 579.69 256.00 591.21 227.73 587.36 C 212.29 585.52 197.42 579.36 185.13 569.84 C 163.01 552.85 150.09 524.79 151.00 496.98 C 151.71 476.34 159.62 455.85 173.63 440.57 C 188.47 423.77 210.14 413.14 232.51 411.77 M 249.95 448.70 C 247.38 455.85 244.82 463.01 242.11 470.11 C 237.71 482.09 234.36 494.42 230.58 506.61 C 225.87 520.63 221.87 534.88 217.46 549.00 C 221.27 548.99 225.09 549.01 228.90 548.99 C 232.71 537.58 236.66 526.22 241.00 515.00 C 249.25 493.28 254.41 470.58 261.92 448.63 C 257.93 448.50 253.94 448.59 249.95 448.70 M 214.44 462.31 C 198.87 474.29 182.18 484.78 166.88 497.14 C 166.18 502.51 171.58 504.98 174.74 508.26 C 185.56 518.32 198.06 526.30 209.51 535.58 C 210.54 536.02 211.63 536.22 212.80 536.17 C 214.74 531.40 215.35 526.23 214.99 521.12 C 207.22 513.80 197.94 508.19 189.93 501.12 C 191.29 499.42 192.73 497.76 194.45 496.41 C 201.54 490.71 208.95 485.39 216.63 480.52 C 217.60 474.41 216.97 468.04 217.11 461.83 C 216.44 461.95 215.11 462.19 214.44 462.31 M 266.30 463.88 C 265.94 469.48 265.30 475.12 266.02 480.72 C 274.32 486.66 282.31 493.03 290.40 499.26 C 289.99 500.45 289.64 501.76 288.50 502.48 C 280.38 509.07 272.15 515.53 263.99 522.07 C 263.96 527.43 264.24 532.77 264.49 538.12 C 267.89 538.30 270.57 536.04 273.22 534.25 C 286.68 524.83 299.43 514.45 312.44 504.44 C 314.80 503.21 313.81 500.37 314.00 498.25 C 312.37 496.80 310.73 495.37 308.98 494.08 C 296.25 484.46 283.65 474.67 271.21 464.70 C 269.92 463.25 267.96 463.89 266.30 463.88 Z" />
<path fill="#111111" opacity="1.00" d=" M 469.31 541.40 C 475.35 557.78 480.72 574.43 486.25 591.00 C 474.91 591.00 463.57 591.00 452.23 591.00 C 458.09 574.53 462.98 557.70 469.31 541.40 Z" />
<path fill="#111111" opacity="1.00" d=" M 696.54 565.53 C 703.21 564.19 711.16 564.59 716.27 569.70 C 720.57 573.55 722.26 579.35 723.00 584.89 C 709.27 584.94 695.54 584.85 681.81 584.92 C 682.40 576.32 687.85 567.74 696.54 565.53 Z" />
<path fill="#111111" opacity="1.00" d=" M 604.39 566.47 C 610.19 565.29 616.66 565.84 621.59 569.40 C 627.80 573.79 630.41 581.60 630.97 588.89 C 631.29 597.10 629.39 606.29 622.80 611.81 C 619.10 615.22 613.88 616.39 608.96 616.04 C 600.29 616.59 592.29 610.20 590.01 601.97 C 587.53 592.81 587.64 582.16 593.10 574.05 C 595.60 570.08 599.93 567.63 604.39 566.47 Z" />
</g>
<g id="#dededdff">
<path fill="#dededd" opacity="1.00" d=" M 218.06 351.11 C 219.34 350.72 220.56 350.04 221.93 350.02 C 234.25 349.96 246.58 350.05 258.90 349.95 C 260.76 353.26 260.70 357.25 260.99 360.94 C 260.83 367.83 261.41 374.71 262.24 381.54 C 273.56 384.08 284.05 389.17 294.89 393.05 C 303.31 387.78 305.83 376.15 315.09 371.95 C 321.96 374.93 327.19 380.46 333.01 384.99 C 336.77 388.22 340.55 391.41 344.24 394.72 C 346.23 396.24 347.45 399.42 345.80 401.59 C 341.38 408.26 336.60 414.69 332.05 421.27 C 332.20 422.44 332.99 423.38 333.55 424.39 C 338.89 432.68 344.15 441.09 348.15 450.13 C 358.09 450.81 367.78 446.98 377.74 448.13 C 379.80 449.66 379.87 452.44 380.48 454.72 C 382.85 465.97 385.06 477.39 385.03 488.93 C 382.63 491.52 378.96 491.73 375.75 492.62 C 370.95 493.85 366.09 494.84 361.37 496.34 C 358.38 497.21 358.94 500.81 358.31 503.20 C 357.89 512.78 355.76 522.16 354.41 531.64 C 361.35 536.32 368.54 540.69 375.24 545.73 C 377.71 547.41 377.37 550.89 376.28 553.30 C 372.41 562.14 367.64 570.56 363.21 579.13 C 362.24 580.84 361.47 582.83 359.75 583.94 C 355.87 584.70 352.50 582.36 349.14 580.86 C 344.02 578.48 339.04 575.83 333.98 573.34 C 328.33 579.27 322.02 584.49 316.23 590.28 C 313.48 592.64 310.49 594.73 307.97 597.36 C 308.02 599.05 307.82 600.83 308.56 602.43 C 311.01 608.69 314.03 614.76 316.00 621.20 C 317.38 624.74 313.98 627.72 311.03 628.98 C 301.56 632.80 292.15 636.76 282.77 640.80 C 280.74 641.56 277.84 643.09 276.20 640.83 C 270.12 634.08 267.44 625.01 261.78 617.94 C 253.49 617.66 245.31 619.58 237.00 619.00 C 229.77 619.67 222.55 617.14 215.39 618.25 C 210.99 625.11 208.41 633.02 203.75 639.73 C 202.60 641.51 200.46 642.71 198.38 641.69 C 188.52 637.88 178.96 633.29 168.87 630.07 C 165.44 629.17 162.68 626.81 160.92 623.78 C 163.16 615.81 166.97 608.43 169.93 600.73 C 171.01 598.62 170.45 595.83 168.21 594.76 C 159.30 589.39 151.73 582.08 144.85 574.34 C 136.78 576.52 129.83 581.58 121.85 583.99 C 118.50 584.57 116.81 581.00 115.40 578.62 C 111.26 570.75 107.14 562.87 103.11 554.94 C 101.90 552.02 99.56 548.21 102.61 545.60 C 109.12 540.09 117.00 536.48 124.08 531.77 C 123.98 526.74 121.88 522.00 121.82 516.96 C 120.70 510.82 121.15 504.57 120.49 498.40 C 120.32 496.97 118.43 497.08 117.44 496.52 C 110.13 494.43 102.58 493.21 95.42 490.64 C 93.19 489.77 92.62 487.23 93.04 485.10 C 94.86 473.46 96.42 461.75 99.28 450.30 C 100.22 447.61 103.70 447.97 105.99 448.01 C 113.97 448.76 121.95 449.57 129.95 450.04 C 134.79 440.66 139.96 431.44 146.09 422.82 C 142.94 414.92 137.11 408.48 132.59 401.36 C 131.59 399.83 131.99 397.88 132.05 396.17 C 132.84 394.38 134.55 393.27 135.99 392.05 C 143.16 386.21 150.15 380.13 157.57 374.61 C 159.75 373.01 163.01 371.50 165.39 373.57 C 172.15 379.24 176.33 387.36 183.01 393.12 C 190.36 389.98 197.70 386.78 205.29 384.27 C 208.54 383.25 211.88 382.42 214.94 380.90 C 216.29 371.00 215.69 360.86 218.06 351.11 M 232.51 411.77 C 210.14 413.14 188.47 423.77 173.63 440.57 C 159.62 455.85 151.71 476.34 151.00 496.98 C 150.09 524.79 163.01 552.85 185.13 569.84 C 197.42 579.36 212.29 585.52 227.73 587.36 C 256.00 591.21 285.49 579.69 304.41 558.47 C 316.32 545.52 324.02 528.86 326.50 511.46 C 328.74 493.79 326.05 475.31 317.51 459.56 C 310.59 446.18 300.12 434.79 287.74 426.28 C 271.60 415.56 251.87 410.04 232.51 411.77 Z" />
<path fill="#dededd" opacity="1.00" d=" M 432.00 379.09 C 446.02 379.14 460.05 379.12 474.07 379.03 C 484.35 379.59 495.65 381.11 503.36 388.64 C 510.26 394.70 513.53 403.94 514.00 412.93 C 514.25 422.75 511.68 433.38 504.33 440.33 C 500.63 444.14 495.74 446.43 490.86 448.32 C 499.73 463.70 508.66 479.05 518.11 494.07 C 510.51 493.92 502.91 494.04 495.30 494.00 C 487.07 479.76 478.85 465.50 470.42 451.38 C 464.28 451.20 458.14 451.43 452.00 451.26 C 452.00 465.52 451.99 479.78 452.01 494.04 C 445.34 493.97 438.67 494.00 432.00 494.04 C 432.00 455.72 432.00 417.41 432.00 379.09 M 452.00 397.00 C 452.01 409.24 451.98 421.48 452.02 433.73 C 460.34 433.47 468.70 434.12 476.99 433.02 C 483.16 432.49 489.92 429.44 492.20 423.26 C 495.38 414.96 493.42 403.23 484.44 399.48 C 474.15 395.31 462.79 397.59 452.00 397.00 Z" />
<path fill="#dededd" opacity="1.00" d=" M 698.00 389.52 C 704.51 389.50 711.02 389.48 717.53 389.54 C 717.37 396.68 717.55 403.84 717.38 410.99 C 724.09 411.01 730.81 410.99 737.52 411.01 C 737.44 416.34 737.54 421.67 737.45 427.00 C 730.75 427.00 724.05 426.99 717.35 427.00 C 717.57 440.01 717.38 453.03 717.52 466.05 C 717.63 469.57 717.77 473.79 721.10 475.91 C 726.13 479.20 732.48 477.89 738.00 476.80 C 738.00 482.54 737.99 488.28 738.01 494.03 C 731.00 494.24 723.98 494.45 716.97 494.12 C 710.80 493.90 705.11 490.16 701.82 485.05 C 698.72 479.98 697.81 473.87 698.00 468.02 C 698.00 454.34 698.00 440.66 698.00 426.98 C 693.66 427.01 689.33 426.99 685.00 427.00 C 685.00 421.67 685.00 416.33 684.99 410.99 C 689.33 411.01 693.66 410.99 698.00 411.00 C 697.99 403.84 698.00 396.68 698.00 389.52 Z" />
<path fill="#dededd" opacity="1.00" d=" M 627.27 412.21 C 638.95 407.32 652.88 407.83 664.03 413.91 C 670.18 417.20 674.82 423.05 676.50 429.83 C 670.49 430.94 664.48 432.03 658.47 433.12 C 656.62 428.26 652.14 424.63 646.97 424.02 C 642.60 423.55 637.79 423.42 633.99 425.98 C 630.39 428.02 629.05 432.79 630.45 436.55 C 632.08 439.71 635.51 441.33 638.80 442.21 C 648.76 444.94 659.58 445.79 668.43 451.56 C 681.38 459.55 680.08 480.85 668.04 489.10 C 659.13 495.49 647.56 496.40 636.99 495.12 C 624.94 494.14 612.84 486.40 609.76 474.20 C 615.33 472.62 621.01 471.40 626.63 470.02 C 629.50 477.26 637.39 481.61 645.02 481.01 C 649.04 481.21 653.37 480.21 656.34 477.33 C 660.04 474.08 659.90 467.84 656.69 464.31 C 651.67 460.54 645.12 460.28 639.25 458.75 C 630.99 456.71 622.00 454.49 616.18 447.81 C 611.25 442.63 610.87 434.86 612.20 428.20 C 614.08 420.71 620.39 415.18 627.27 412.21 Z" />
<path fill="#dededd" opacity="1.00" d=" M 525.76 410.99 C 532.22 411.00 538.69 411.00 545.15 410.99 C 545.00 427.68 545.14 444.37 545.12 461.05 C 545.21 466.21 546.15 472.10 550.44 475.51 C 558.06 481.33 570.50 480.10 576.32 472.25 C 578.38 469.65 579.26 466.32 579.15 463.03 C 579.21 445.69 579.12 428.35 579.16 411.01 C 585.78 410.98 592.39 411.01 599.01 411.00 C 599.00 438.68 598.99 466.37 599.01 494.06 C 593.00 494.02 587.00 494.02 580.99 494.04 C 580.99 490.58 581.02 487.12 580.96 483.67 C 575.81 489.05 569.58 494.06 561.97 495.13 C 552.26 496.78 541.62 494.53 534.24 487.77 C 528.74 482.40 525.75 474.65 525.88 466.99 C 525.69 448.33 525.89 429.66 525.76 410.99 Z" />
<path fill="#dededd" opacity="1.00" d=" M 249.95 448.70 C 253.94 448.59 257.93 448.50 261.92 448.63 C 254.41 470.58 249.25 493.28 241.00 515.00 C 236.66 526.22 232.71 537.58 228.90 548.99 C 225.09 549.01 221.27 548.99 217.46 549.00 C 221.87 534.88 225.87 520.63 230.58 506.61 C 234.36 494.42 237.71 482.09 242.11 470.11 C 244.82 463.01 247.38 455.85 249.95 448.70 Z" />
<path fill="#dededd" opacity="1.00" d=" M 214.44 462.31 C 215.11 462.19 216.44 461.95 217.11 461.83 C 216.97 468.04 217.60 474.41 216.63 480.52 C 208.95 485.39 201.54 490.71 194.45 496.41 C 192.73 497.76 191.29 499.42 189.93 501.12 C 197.94 508.19 207.22 513.80 214.99 521.12 C 215.35 526.23 214.74 531.40 212.80 536.17 C 211.63 536.22 210.54 536.02 209.51 535.58 C 198.06 526.30 185.56 518.32 174.74 508.26 C 171.58 504.98 166.18 502.51 166.88 497.14 C 182.18 484.78 198.87 474.29 214.44 462.31 Z" />
<path fill="#dededd" opacity="1.00" d=" M 266.30 463.88 C 267.96 463.89 269.92 463.25 271.21 464.70 C 283.65 474.67 296.25 484.46 308.98 494.08 C 310.73 495.37 312.37 496.80 314.00 498.25 C 313.81 500.37 314.80 503.21 312.44 504.44 C 299.43 514.45 286.68 524.83 273.22 534.25 C 270.57 536.04 267.89 538.30 264.49 538.12 C 264.24 532.77 263.96 527.43 263.99 522.07 C 272.15 515.53 280.38 509.07 288.50 502.48 C 289.64 501.76 289.99 500.45 290.40 499.26 C 282.31 493.03 274.32 486.66 266.02 480.72 C 265.30 475.12 265.94 469.48 266.30 463.88 Z" />
<path fill="#dededd" opacity="1.00" d=" M 456.39 520.03 C 465.12 520.00 473.85 519.93 482.58 520.07 C 488.66 538.60 495.38 556.91 501.59 575.40 C 508.59 595.77 515.41 616.19 522.66 636.48 C 515.53 636.28 508.39 636.70 501.26 636.28 C 498.25 627.09 495.07 617.96 491.88 608.83 C 476.98 608.84 462.08 608.73 447.18 608.90 C 443.93 618.02 440.80 627.19 437.79 636.39 C 430.80 636.54 423.81 636.39 416.82 636.47 C 425.07 613.02 432.91 589.43 440.96 565.91 C 446.05 550.60 451.59 535.43 456.39 520.03 M 469.31 541.40 C 462.98 557.70 458.09 574.53 452.23 591.00 C 463.57 591.00 474.91 591.00 486.25 591.00 C 480.72 574.43 475.35 557.78 469.31 541.40 Z" />
<path fill="#dededd" opacity="1.00" d=" M 534.72 520.00 C 541.15 520.00 547.57 520.00 554.00 519.99 C 554.00 558.82 554.00 597.64 554.00 636.46 C 547.57 636.41 541.14 636.52 534.71 636.42 C 534.85 597.61 534.80 558.80 534.72 520.00 Z" />
<path fill="#dededd" opacity="1.00" d=" M 855.17 530.26 C 861.78 530.20 868.39 530.35 875.00 530.26 C 875.00 537.40 874.99 544.54 875.01 551.68 C 881.65 551.82 888.30 551.79 894.95 551.65 C 895.04 556.77 894.98 561.88 895.00 567.00 C 888.33 566.99 881.66 567.00 875.00 567.00 C 875.00 581.35 874.99 595.70 875.00 610.05 C 874.93 613.87 877.09 618.24 881.13 619.07 C 885.72 620.66 890.65 619.95 895.27 618.86 C 895.17 624.72 895.28 630.59 895.24 636.47 C 887.22 636.39 879.13 637.01 871.17 635.88 C 861.60 633.97 855.32 624.47 855.16 615.07 C 855.07 599.05 855.25 583.03 855.06 567.01 C 850.84 566.98 846.63 567.01 842.42 567.00 C 842.39 561.91 842.34 556.83 842.36 551.75 C 846.59 551.81 850.82 551.73 855.05 551.82 C 855.24 544.63 855.05 537.44 855.17 530.26 Z" />
<path fill="#dededd" opacity="1.00" d=" M 575.36 565.37 C 584.66 550.01 607.01 544.15 622.43 553.54 C 625.99 555.57 628.16 559.14 630.73 562.20 C 631.05 558.47 631.29 554.74 631.88 551.05 C 637.86 551.13 643.84 551.07 649.83 551.12 C 649.68 575.76 649.85 600.41 649.69 625.05 C 649.44 634.10 649.33 643.60 644.84 651.73 C 639.76 661.53 629.49 667.81 618.79 669.64 C 605.83 671.58 591.29 670.82 580.55 662.45 C 575.74 659.16 572.63 654.09 570.00 649.02 C 575.54 647.11 581.20 645.59 586.82 643.90 C 590.14 649.18 595.46 653.37 601.78 654.21 C 610.39 655.86 621.02 653.90 626.00 645.98 C 630.83 638.81 630.01 629.81 629.96 621.61 C 623.81 628.79 614.62 633.59 605.03 633.02 C 596.44 633.53 587.77 630.37 581.30 624.75 C 574.96 619.07 571.13 611.00 569.39 602.76 C 566.90 590.17 568.39 576.35 575.36 565.37 M 604.39 566.47 C 599.93 567.63 595.60 570.08 593.10 574.05 C 587.64 582.16 587.53 592.81 590.01 601.97 C 592.29 610.20 600.29 616.59 608.96 616.04 C 613.88 616.39 619.10 615.22 622.80 611.81 C 629.39 606.29 631.29 597.10 630.97 588.89 C 630.41 581.60 627.80 573.79 621.59 569.40 C 616.66 565.84 610.19 565.29 604.39 566.47 Z" />
<path fill="#dededd" opacity="1.00" d=" M 672.73 561.78 C 686.91 545.92 714.13 544.93 729.60 559.42 C 739.89 569.60 743.15 584.81 743.00 598.82 C 722.38 598.59 701.74 598.66 681.12 598.74 C 681.98 604.88 683.39 611.47 688.12 615.88 C 694.57 622.32 705.06 623.63 713.37 620.43 C 717.67 618.87 720.56 615.18 722.88 611.43 C 728.98 612.88 735.09 614.38 741.30 615.29 C 736.25 630.03 719.84 637.72 705.02 637.00 C 693.53 637.74 681.34 634.22 673.19 625.81 C 666.93 619.69 663.71 611.12 662.52 602.59 C 660.54 588.43 662.96 572.78 672.73 561.78 M 696.54 565.53 C 687.85 567.74 682.40 576.32 681.81 584.92 C 695.54 584.85 709.27 584.94 723.00 584.89 C 722.26 579.35 720.57 573.55 716.27 569.70 C 711.16 564.59 703.21 564.19 696.54 565.53 Z" />
<path fill="#dededd" opacity="1.00" d=" M 786.22 552.08 C 797.03 547.10 810.79 548.23 820.17 555.77 C 826.95 561.80 830.29 571.08 830.19 580.04 C 830.48 598.84 830.20 617.66 830.39 636.47 C 823.84 636.44 817.29 636.45 810.75 636.43 C 810.80 622.62 810.71 608.81 810.75 595.00 C 810.65 589.40 811.05 583.73 809.86 578.22 C 808.52 572.66 803.96 568.04 798.44 566.58 C 788.77 563.67 776.06 569.14 774.91 579.99 C 774.67 598.78 774.67 617.58 774.89 636.37 C 768.26 636.52 761.62 636.38 754.99 636.43 C 754.98 607.97 755.04 579.52 754.96 551.07 C 760.94 551.19 766.93 551.14 772.92 551.19 C 773.05 554.64 772.93 558.09 773.07 561.54 C 777.31 558.20 781.13 554.19 786.22 552.08 Z" />
</g>
</svg>
